PathFileType	4	(X/Y/Z)	trial_0_0-299.trc
DataRate	CameraRate	NumFrames	NumMarkers	Units	OrigDataRate	OrigDataStartFrame	OrigNumFrames
60	60	7	21	m	60	74	299
Frame#	Time	RHip			RKnee			RAnkle			RBigToe			RSmallToe			RHeel			LHip			LKnee			LAnkle			LBigToe			LSmallToe			LHeel			Neck			Head			Nose			RShoulder			RElbow			RWrist			LShoulder			LElbow			LWrist		
		X1	Y1	Z1	X2	Y2	Z2	X3	Y3	Z3	X4	Y4	Z4	X5	Y5	Z5	X6	Y6	Z6	X7	Y7	Z7	X8	Y8	Z8	X9	Y9	Z9	X10	Y10	Z10	X11	Y11	Z11	X12	Y12	Z12	X13	Y13	Z13	X14	Y14	Z14	X15	Y15	Z15	X16	Y16	Z16	X17	Y17	Z17	X18	Y18	Z18	X19	Y19	Z19	X20	Y20	Z20	X21	Y21	Z21
75	1.25	1.3749031738353659	1.175736605678676	0.4497546749449217	1.820755883733649	1.1067616856140738	0.4322600837236309	2.1474273558246955	0.9286587377063643	0.35481449083392	2.4256324379370033	1.1341938139991437	0.338697195732967	2.4014732390945275	1.0913307694383922	0.4334235438984978	2.1403857857434128	0.8568669162833984	0.339793342390251	1.372929417780282	1.2203752538624748	0.17466595497690748	1.790340467981728	1.080730811822582	0.17332832266154555	2.0610198423637947	0.8224834682411053	0.1733168939124749	2.4485925313110974	1.172160383325818	0.1742277510707734	2.307843335373391	1.0258471919545284	0.10071536005817014	2.059919874691318	0.7026434077140457	0.18545710011507274	0.6552396226035097	1.130834004691594	0.3627842166325195	0.3133116600214335	1.366972384729646	0.418935933561165	0.5470664052998174	1.5781224342906541	0.4038059519678885	0.7487759751689556	1.150798020762219	0.5544321618532394	1.088147606750662	1.168769251378974	0.584490508100787	1.3918606467677945	1.447938428027703	0.42256794443979356	0.7212661066920676	1.143428831530218	0.16840066743559426	1.0694833147362968	1.2050396498686151	0.07994622412986002	1.4249647989142056	1.5795049124472094	0.26173263557767007
76	1.2666666666666666	1.3744743013107172	1.1742769740761596	0.4503383051866044	1.8218400843934042	1.1084928933305378	0.4317747588842245	2.1473491623575374	0.9289332833265791	0.35477639049065884	2.424233261640853	1.1326938932519628	0.33818098698490373	2.402919674018545	1.0940328261824195	0.432934775432885	2.1390435750088583	0.8546330281583567	0.3403114961067485	1.3733458265599692	1.220076336718854	0.17465791816829052	1.7905628806815228	1.0800096862869801	0.17330816421853174	2.0608247413200855	0.8218586607059404	0.1733682053846297	2.449143368234201	1.173301938209095	0.17385338503174544	2.3066835909643837	1.025349386153552	0.10079902845051772	2.059310029405003	0.7001818511291454	0.1859646707992291	0.6553734998366871	1.1309701865187156	0.36271655969440975	0.312848329949698	1.3739077412068064	0.41852055356107476	0.5482383725892395	1.5789112764899693	0.40387126723234124	0.7490111887115913	1.1557181668616001	0.5556931813823377	1.0882037693993287	1.168899812713431	0.5844988057801881	1.3918102791198987	1.4474527811005462	0.42241578813222314	0.7214356766984626	1.1451378357870503	0.1685541672803458	1.0696805791927797	1.2046644817181273	0.0800296454377179	1.423567259043162	1.5748125632891865	0.2619670196541498
77	1.2833333333333334	1.3740325582992177	1.1723136854801344	0.4510045451441222	1.8222221662522644	1.1099407482914665	0.43152587613154614	2.1475247878539583	0.9292624033288182	0.35473585389538026	2.4234403283813624	1.1323142028199151	0.3377327517183315	2.4041305498575487	1.0962684255495878	0.43257750408074724	2.1386032665816526	0.8541889786870676	0.34074750908704665	1.3732238915640926	1.219336007092211	0.17476688007466712	1.7905020389899433	1.0797858710002906	0.17340094985237822	2.0609950807688415	0.8220755916604552	0.17336383525829327	2.449940825278943	1.1752412377144912	0.17329821218904992	2.3062715571661414	1.0257332807043478	0.10082620294798061	2.0599079054525036	0.6998816389762124	0.1859739992389307	0.6555578622920294	1.1313886711487382	0.3626330224244885	0.3124741859397597	1.3793627072426307	0.4181737092330244	0.549282849468237	1.5799460858984484	0.40383538814180253	0.7491212972417994	1.1585506148934885	0.556380319749934	1.0883205834735943	1.1689298033524074	0.5845373270069407	1.3917576279006747	1.4469522288524972	0.4222986957095348	0.7220249972831754	1.1503371302227055	0.16926028331755727	1.0700957639984245	1.2036576228033764	0.0801935657851371	1.4230636007823383	1.5732949137344039	0.26201062801344743
78	1.3	1.3737843420876503	1.170523242113549	0.4515127463648223	1.8220274995737662	1.1113482930732421	0.43140622680881596	2.147850434711121	0.9295772796258995	0.3547121039138594	2.4234877978709624	1.1334716628931987	0.33732340800486843	2.404941614886554	1.0980264087339324	0.4323470275606185	2.1393527324085255	0.8561255913088434	0.34119350078970634	1.3725134170829545	1.2178681331105372	0.17504822865974584	1.7902156274272747	1.0798724556267418	0.17358504161099325	2.0613641150348436	0.8229214986063319	0.1733004995638686	2.450299053392875	1.17687152471189	0.17266710429615795	2.3064009008162416	1.0266070730538739	0.10075520894163148	2.0612506743940804	0.7016617047395861	0.1855529396030813	0.6558341951881843	1.1326224157742342	0.36245277647985574	0.31216039622689334	1.3832548801731768	0.41791774641269785	0.5500461999772206	1.5813670132298645	0.40358519648156443	0.7491436808826204	1.160004865560456	0.5566740042143004	1.0885496556483112	1.168957373385722	0.5846028888590055	1.3916940764839243	1.4463921102094321	0.4222417075625888	0.7228525350699397	1.1573672251672278	0.17027336829318845	1.0705925215649124	1.2018830656667188	0.08045670033175854	1.4232683163516906	1.5742787468172577	0.26157475925378687
79	1.3166666666666669	1.3737081009470218	1.169155227674504	0.45178769401661634	1.8214708420889971	1.112839179721653	0.4313131303938198	2.1482445183816687	0.9297998231250179	0.35471166965834044	2.4239592107091155	1.1352760383529912	0.3367374251642826	2.4054326591944215	1.0993592710353792	0.432210161600185	2.141170656148001	0.8603156720501564	0.3418516661277109	1.3713302224496646	1.2154611579095127	0.17553428800065396	1.7897524306227908	1.0801125858809206	0.17378859361944063	2.0617278308923344	0.8242021381327973	0.17312183907733292	2.449914302420345	1.177549499462644	0.17194060104297487	2.3069599492307966	1.0276540400103966	0.10055267351067546	2.0627936849979127	0.7048317478295894	0.1848831422053322	0.65627392890509	1.135068114685195	0.3621119306706919	0.31191751253230454	1.3860108370878208	0.4177344706542986	0.5505380675927299	1.5833499502063462	0.40303504934568357	0.7491572756792921	1.1607990084759092	0.5567522786292749	1.088915646669359	1.1691002273885645	0.5846775232524424	1.3916298916745238	1.4458512735920999	0.4222391752674313	0.7236440485701575	1.1639371049900933	0.17124937901848677	1.070914977683037	1.199920492100835	0.08071698186587378	1.4238689368115782	1.5766198490968966	0.2607561852871568
80	1.3333333333333333	1.3736642441087412	1.168114526114865	0.4518810860904179	1.8209196965534051	1.1144288983078257	0.43116780730062254	2.1486703245998444	0.9298945506872569	0.3547221530651993	2.4243592296592267	1.1366091874812148	0.33588478460327886	2.4058688722798114	1.1003813520512842	0.4321151743335948	2.1435188100013622	0.8657473866646833	0.34282871779351315	1.369905626378106	1.2122638713594274	0.17618591674777137	1.7890924084707076	1.0803338902085882	0.17396505440544957	2.062020951187207	0.8256256925634566	0.17280931668755836	2.449167550985699	1.1775068969751101	0.17106740876694243	2.3079273305135395	1.0286207050675449	0.10021728011895867	2.0641390846053587	0.7083843744956049	0.184170661596869	0.6568799386779285	1.1386461697143566	0.3616194781431253	0.31177870920184764	1.3883767376602136	0.41756903178613114	0.550847630127396	1.5857908475104308	0.4022067257339317	0.7492272849290669	1.1614418325824731	0.5566990122677621	1.0893783813101718	1.1693833373486484	0.5847384508555608	1.391587092166166	1.4454648845580023	0.4222553801293283	0.7242074037070876	1.1685255774888592	0.17195900145871168	1.070930188736961	1.1986689994412552	0.0807986971547882	1.4245209075461394	1.5790398467313775	0.25988221187283456
81	1.35	1.3734731876200206	1.1672302330894389	0.451881117695241	1.8208481279583721	1.1160504230171213	0.4309510428028034	2.149167457078752	0.9299113137300957	0.3547134241173182	2.42491480317742	1.1375305280357257	0.33502051760891594	2.4065640066743232	1.1012443371199494	0.4320064032106493	2.145618562066152	0.8707171470689665	0.34393454345994423	1.3684942831759457	1.2088743776879807	0.17688326054390044	1.7881912385540382	1.0802694497504717	0.1741382472949813	2.0623614222410804	0.8267474759020568	0.17245495473229058	2.4490042826447294	1.177755010056817	0.1701497360007258	2.309287269006108	1.0293702254384525	0.09979954569284233	2.065127996821653	0.7113325064122683	0.1835747468629323	0.6575120128698487	1.1426422487455108	0.3610831401879342	0.31177128877430715	1.391465398725955	0.4173103871539178	0.5510143583228703	1.5881735272945277	0.40124915913520226	0.7493856073807279	1.1623493549905897	0.5565121770942147	1.089875040950294	1.169720797232699	0.584778334662545	1.3915911364286329	1.4453603390127352	0.42224096426258445	0.7245116417661696	1.1709835573443519	0.1723722122070746	1.0707173060898316	1.1986399849543918	0.08061649858724287	1.424993283801876	1.5807006918290851	0.25922064559811775
